<svg width="14" height="15" viewBox="0 0 14 15" fill="none" xmlns="http://www.w3.org/2000/svg">
<path fill-rule="evenodd" clip-rule="evenodd" d="M6.5249 2.29883L4.26245 3.5813L2.45776 4.64233L6.5249 6.86084L10.5923 4.64233L8.7876 3.5813L6.5249 2.29883ZM2 7.5L2.00659 6.67456L5.5249 8.59375V12.1343L4.26245 11.4187L2.02075 10.1006L2 7.5ZM7.5249 12.1343L8.7876 11.4187L11.0293 10.1006L11.05 7.5L11.0435 6.67456L7.5249 8.59375V12.1343ZM9.7876 1.84912L6.5249 0L3.26245 1.84912L0.0297852 3.75L0 7.5L0.0297852 11.25L3.26245 13.1509L6.5249 15L9.7876 13.1509L13.0203 11.25L13.05 7.5L13.0203 3.75L9.7876 1.84912Z" fill="#9E9E9E"/>
</svg>
