<svg width="11" height="15" viewBox="0 0 11 15" fill="none" xmlns="http://www.w3.org/2000/svg">
<path d="M4.70312 13.7266C4.22917 13.0339 3.61849 12.1589 2.87109 11.1016C1.95964 9.78906 1.35807 8.90495 1.06641 8.44922C0.647135 7.79297 0.364583 7.24609 0.21875 6.80859C0.0729167 6.35286 0 5.83333 0 5.25C0 4.30208 0.236979 3.42708 0.710938 2.625C1.1849 1.82292 1.82292 1.1849 2.625 0.710938C3.42708 0.236979 4.30208 0 5.25 0C6.19792 0 7.07292 0.236979 7.875 0.710938C8.67708 1.1849 9.3151 1.82292 9.78906 2.625C10.263 3.42708 10.5 4.30208 10.5 5.25C10.5 5.83333 10.4271 6.35286 10.2812 6.80859C10.1354 7.24609 9.85286 7.79297 9.43359 8.44922C9.14193 8.90495 8.54036 9.78906 7.62891 11.1016L5.79688 13.7266C5.66927 13.9089 5.25 14.45 5.25 14.45C5.25 14.45 4.83073 13.9089 4.70312 13.7266ZM5.25 7.4375C5.85156 7.4375 6.36198 7.22786 6.78125 6.80859C7.21875 6.37109 7.4375 5.85156 7.4375 5.25C7.4375 4.64844 7.21875 4.13802 6.78125 3.71875C6.36198 3.28125 5.85156 3.0625 5.25 3.0625C4.64844 3.0625 4.12891 3.28125 3.69141 3.71875C3.27214 4.13802 3.0625 4.64844 3.0625 5.25C3.0625 5.85156 3.27214 6.37109 3.69141 6.80859C4.12891 7.22786 4.64844 7.4375 5.25 7.4375Z" fill="#DB3142"/>
</svg>
