<svg width="200" height="63" viewBox="0 0 200 63" fill="none" xmlns="http://www.w3.org/2000/svg">
<path d="M60.7165 0.184448C60.9945 0.221784 61.2487 0.358405 61.4306 0.568227C61.6126 0.778049 61.7095 1.04637 61.7029 1.32196C61.7234 1.70621 61.7234 2.09124 61.7029 2.47549C61.7029 20.9854 61.7029 39.5034 61.7029 58.0293C61.7233 58.4136 61.7233 58.7986 61.7029 59.1828C61.6749 59.4777 61.5487 59.7553 61.3439 59.9726C61.139 60.1898 60.8669 60.3346 60.5698 60.3844C60.1347 60.4404 59.6961 60.4645 59.2574 60.4565H2.52009C2.0981 60.4658 1.67595 60.4471 1.25654 60.4005C0.942187 60.3687 0.647958 60.2336 0.421568 60.0169C0.195177 59.8003 0.0499013 59.5148 0.00929841 59.2069C-0.00309947 59.0175 -0.00309947 58.8275 0.00929841 58.6381V1.92276C0.00929841 1.16976 0.00929841 0.416757 1.00383 0.184448H11.1937C12.3105 0.496863 12.2372 1.39406 12.2372 2.21114C12.2372 18.1043 12.2372 33.9947 12.2372 49.8825C12.2372 50.6835 12.392 50.9719 13.2888 50.9639C16.7452 50.8998 20.2016 50.8998 23.658 50.9639C24.5791 50.9639 24.8482 50.7717 24.8482 49.8264C24.8155 34.0935 24.8155 18.3633 24.8482 2.63571C24.8412 2.1562 24.8712 1.67686 24.9378 1.2018C24.9395 0.952529 25.0329 0.712272 25.2007 0.525312C25.3685 0.338352 25.5994 0.217293 25.8508 0.184448H35.6331H36.0407C36.1199 0.187809 36.1975 0.206884 36.269 0.240523C37.0842 0.697129 36.9782 1.36201 36.9782 2.29926C36.9782 18.1229 36.9782 33.9413 36.9782 49.7543C36.9782 50.6755 37.1331 51.004 38.1765 50.9799C41.5596 50.9078 44.9508 50.9159 48.3338 50.9799C49.2794 50.9799 49.5892 50.8197 49.581 49.8024C49.543 34.0428 49.543 18.2885 49.581 2.53958C49.5565 2.15544 49.5565 1.77018 49.581 1.38604C49.6626 0.801268 49.8582 0.304608 50.5511 0.192459L60.7165 0.184448Z" fill="#DB3142"/>
<path d="M105.373 61.4178C103.632 61.1587 102.015 60.378 100.743 59.1823C99.4708 57.9865 98.6051 56.4341 98.2642 54.7369C97.5142 51.757 96.8621 48.753 96.1202 45.765C95.5007 43.2737 94.4165 42.3925 91.8323 42.2483C90.6584 42.1843 89.4764 42.2483 88.3107 42.1923C87.5444 42.1442 87.4058 42.4406 87.4058 43.1215C87.4058 48.2483 87.4058 53.3751 87.4058 58.5019C87.4058 60.3123 87.2591 60.4565 85.4005 60.4565C82.8571 60.4565 80.3164 60.4565 77.7784 60.4565C76.2377 60.4565 76.0095 60.2162 76.0095 58.7423C76.0095 45.5087 76.0095 32.2804 76.0095 19.0575C76.0095 17.6557 76.0747 17.5275 77.4524 17.2311C80.3381 16.5983 83.2402 16.0055 86.1423 15.4287C87.1205 15.2365 87.3977 15.5248 87.3977 16.7104C87.3977 20.7157 87.3977 24.7211 87.3977 28.7264C87.3977 30.0401 87.3977 31.3539 87.3977 32.6676C87.3929 32.7621 87.4085 32.8565 87.4434 32.9447C87.4783 33.0329 87.5317 33.1129 87.6002 33.1794C87.6686 33.2459 87.7506 33.2975 87.8407 33.3308C87.9308 33.3641 88.0271 33.3783 88.1232 33.3726C89.5579 33.3726 90.9927 33.3726 92.4274 33.3005C93.3394 33.3376 94.2337 33.0451 94.9411 32.4783C95.6486 31.9115 96.1203 31.1097 96.267 30.2244C96.7805 28.3098 97.2207 26.3713 97.6365 24.4327C98.843 18.8252 102.25 15.7091 109.359 15.3887C110.378 15.3486 110.924 15.7812 111.103 16.9908C111.29 18.4211 111.657 19.8231 112.196 21.1643C113.011 23.0629 113.011 23.7197 111.568 24.0882C111.063 24.2199 110.552 24.3242 110.036 24.4006C109.35 24.4556 108.699 24.7154 108.168 25.145C107.638 25.5746 107.254 26.1535 107.068 26.8038C106.595 28.2618 106.114 29.7277 105.731 31.2097C104.916 34.2457 103.522 36.697 100.131 37.4019C100.131 37.6983 100.335 37.7063 100.457 37.7384C101.651 38.0273 102.748 38.6186 103.638 39.4535C104.527 40.2883 105.179 41.3375 105.528 42.4967C106.424 44.8999 107.37 47.3591 108.136 49.8344C108.321 50.647 108.766 51.38 109.406 51.9262C110.045 52.4725 110.846 52.8034 111.69 52.8705C112.044 52.9129 112.384 53.0307 112.686 53.2156C112.989 53.4005 113.246 53.6481 113.441 53.9411C113.636 54.2341 113.763 54.5653 113.814 54.9117C113.865 55.2581 113.839 55.6113 113.736 55.9465C113.394 57.1481 113.019 58.3497 112.726 59.5513C112.481 60.5286 112.196 61.4418 111.307 61.9545C111.009 62.107 110.672 62.171 110.337 62.1388C109.033 61.9625 105.984 61.538 105.373 61.4178Z" fill="#DB3142"/>
<path d="M148.488 0.35269C148.829 0.836763 148.977 1.42678 148.904 2.01089C148.779 3.63686 148.76 5.26902 148.847 6.89738C149.01 9.14837 148.847 9.74116 147.176 9.74116H126.845C125.214 9.74116 125.011 9.17241 125.165 6.94545C125.252 5.30106 125.233 3.65291 125.108 2.01089C125.045 1.45156 125.174 0.887439 125.475 0.408765C125.569 0.282463 125.691 0.179642 125.833 0.108656C125.975 0.0376686 126.131 0.000518038 126.29 0.000222068H147.746C147.889 -0.00292357 148.031 0.0273887 148.16 0.0886653C148.289 0.149942 148.402 0.240432 148.488 0.35269Z" fill="#DB3142"/>
<path d="M200 18.7291C200 32.8679 200 45.9012 200 60.04C199.715 60.6088 199.185 60.4405 198.704 60.4486C195.908 60.4486 193.103 60.4486 190.307 60.4486C189.902 60.4465 189.513 60.2871 189.226 60.0051C188.939 59.7232 188.777 59.3413 188.775 58.9426C188.775 48.2403 188.775 37.5381 188.775 26.8439C188.775 25.9307 188.571 25.6663 187.609 25.6824C184.158 25.7358 180.704 25.7358 177.248 25.6824C176.335 25.6824 176.05 25.8506 176.058 26.8119C176.099 37.45 176.058 48.0801 176.058 58.7183C176.058 60.3925 176.001 60.4486 174.305 60.4486C171.588 60.4486 168.884 60.4486 166.194 60.4486C164.776 60.4486 164.67 60.3364 164.67 58.9906V18.4247C164.67 16.9267 164.727 16.8787 166.3 16.8787C177.061 16.8787 187.818 16.8787 198.573 16.8787C198.969 16.8466 199.364 16.9577 199.682 17.1911C199.893 17.6772 200.002 18.2005 200 18.7291Z" fill="#DB3142"/>
<path d="M143.548 56.7076C142.831 57.3564 142.276 57.8851 141.681 58.3818C137.263 62.0507 132.217 62.8117 126.82 61.1855C122.508 59.8878 119.948 56.8037 118.88 52.542C118.022 49.2922 118.225 45.8596 119.459 42.729C120.12 40.9943 121.172 39.4296 122.538 38.1529C123.903 36.8763 125.546 35.921 127.342 35.3592C131.595 33.9959 136.051 33.3487 140.524 33.4447C141.836 33.4447 141.844 33.4447 141.836 32.1149C141.836 31.2177 141.836 30.3205 141.836 29.4233C141.657 25.9627 139.929 24.3125 136.399 24.2244C132.955 24.2436 129.548 24.9154 126.364 26.203C123.804 27.1323 123.804 27.1403 122.948 24.6009C122.459 23.183 121.978 21.7491 121.505 20.3232C121.138 19.2097 121.269 18.8653 122.32 18.2885C124.252 17.2771 126.34 16.5843 128.5 16.2378C132.885 15.2932 137.406 15.1223 141.852 15.7331C148.374 16.8065 151.814 20.4514 152.45 26.948C152.597 28.414 152.613 29.8879 152.613 31.3619C152.613 36.5848 152.613 41.7757 152.613 47.0307C152.518 50.4019 153.189 53.7516 154.578 56.8357C155.262 58.3097 155.124 58.534 153.632 59.1348C151.521 59.9839 149.417 60.833 147.298 61.6742C146.043 62.1788 145.668 62.0507 145.048 60.8731C144.339 59.566 143.833 58.1619 143.548 56.7076ZM141.852 45.6609C141.852 44.251 141.852 42.8411 141.852 41.4393C141.852 40.8946 141.698 40.6863 141.127 40.7263C140.255 40.7824 139.366 40.7263 138.494 40.8305C136.048 41.0628 133.603 41.4393 131.5 42.9613C130.515 43.7143 129.787 44.7433 129.412 45.9121C129.036 47.0809 129.031 48.3342 129.396 49.506C129.685 50.6264 130.322 51.6302 131.22 52.3771C132.117 53.124 133.23 53.5765 134.402 53.6715C137.067 53.9599 139.187 52.7743 141.102 51.1081C141.358 50.9142 141.56 50.6614 141.693 50.3722C141.825 50.083 141.882 49.7662 141.861 49.4499C141.795 48.2003 141.852 46.9186 141.852 45.6609Z" fill="#DB3142"/>
</svg>
