<svg width="11" height="16" viewBox="0 0 11 16" fill="none" xmlns="http://www.w3.org/2000/svg">
<path d="M4.70312 14.4766C4.22917 13.7839 3.61849 12.9089 2.87109 11.8516C1.95964 10.5391 1.35807 9.65495 1.06641 9.19922C0.647135 8.54297 0.364583 7.99609 0.21875 7.55859C0.0729167 7.10286 0 6.58333 0 6C0 5.05208 0.236979 4.17708 0.710938 3.375C1.1849 2.57292 1.82292 1.9349 2.625 1.46094C3.42708 0.986979 4.30208 0.75 5.25 0.75C6.19792 0.75 7.07292 0.986979 7.875 1.46094C8.67708 1.9349 9.3151 2.57292 9.78906 3.375C10.263 4.17708 10.5 5.05208 10.5 6C10.5 6.58333 10.4271 7.10286 10.2812 7.55859C10.1354 7.99609 9.85286 8.54297 9.43359 9.19922C9.14193 9.65495 8.54036 10.5391 7.62891 11.8516L5.79688 14.4766C5.66927 14.6589 5.25 15.2 5.25 15.2C5.25 15.2 4.83073 14.6589 4.70312 14.4766ZM5.25 8.1875C5.85156 8.1875 6.36198 7.97786 6.78125 7.55859C7.21875 7.12109 7.4375 6.60156 7.4375 6C7.4375 5.39844 7.21875 4.88802 6.78125 4.46875C6.36198 4.03125 5.85156 3.8125 5.25 3.8125C4.64844 3.8125 4.12891 4.03125 3.69141 4.46875C3.27214 4.88802 3.0625 5.39844 3.0625 6C3.0625 6.60156 3.27214 7.12109 3.69141 7.55859C4.12891 7.97786 4.64844 8.1875 5.25 8.1875Z" fill="#9E9E9E"/>
</svg>
