<svg width="15" height="12" viewBox="0 0 15 12" fill="none" xmlns="http://www.w3.org/2000/svg">
<path d="M14.7565 0C14.8241 0.00867199 14.8859 0.0404052 14.9301 0.0891407C14.9743 0.137876 14.9979 0.200199 14.9963 0.264211C15.0012 0.353461 15.0012 0.442894 14.9963 0.532143C14.9963 4.83146 14.9963 7.13265 14.9963 11.4357C15.0012 11.5249 15.0012 11.6144 14.9963 11.7036C14.9895 11.7721 14.9588 11.8366 14.909 11.8871C14.8592 11.9375 14.7931 11.9711 14.7209 11.9827C14.6151 11.9957 14.5085 12.0013 14.4019 11.9995H0.612481C0.509922 12.0016 0.407324 11.9973 0.305389 11.9864C0.228989 11.9791 0.15748 11.9477 0.102458 11.8974C0.0474359 11.847 0.012128 11.7807 0.00225988 11.7092C-0.000753295 11.6652 -0.000753295 11.6211 0.00225988 11.5771V0.403759C0.00225988 0.228859 0.00225988 0.0539586 0.243971 0H2.72052C2.99195 0.072565 2.97412 0.280957 2.97412 0.470742C2.97412 4.16225 2.97412 5.85314 2.97412 9.54342C2.97412 9.72948 3.01176 9.79646 3.2297 9.7946C4.06974 9.77972 4.90979 9.77972 5.74983 9.7946C5.97371 9.7946 6.03909 9.74995 6.03909 9.53039C6.03117 5.87609 6.03117 4.22241 6.03909 0.569356C6.0374 0.457981 6.04469 0.346645 6.06088 0.236301C6.0613 0.178403 6.08399 0.122598 6.12477 0.0791727C6.16555 0.0357474 6.22167 0.00762886 6.28278 0H8.66027H8.75933C8.77857 0.000780678 8.79744 0.00521114 8.81481 0.0130244C9.01293 0.119081 8.98717 0.273514 8.98717 0.491209C8.98717 4.16659 8.98717 5.84074 8.98717 9.51365C8.98717 9.72762 9.02482 9.8039 9.27842 9.79832C10.1006 9.78158 10.9248 9.78344 11.747 9.79832C11.9769 9.79832 12.0521 9.76111 12.0502 9.52481C12.0409 5.86431 12.0409 4.20505 12.0502 0.547028C12.0442 0.457805 12.0442 0.368319 12.0502 0.279096C12.07 0.143269 12.1175 0.0279096 12.2859 0.00186062L14.7565 0Z" fill="#9E9E9E"/>
</svg>
