<svg width="17" height="16" viewBox="0 0 17 16" fill="none" xmlns="http://www.w3.org/2000/svg">
<path fill-rule="evenodd" clip-rule="evenodd" d="M8.57222 2.57585C7.84736 2.94231 7.76923 3.26602 7.76923 3.33333C7.76923 3.40064 7.84736 3.72436 8.57222 4.09081C9.24036 4.4286 10.2332 4.66667 11.3846 4.66667C12.536 4.66667 13.5289 4.4286 14.197 4.09081C14.9219 3.72436 15 3.40064 15 3.33333C15 3.26602 14.9219 2.94231 14.197 2.57585C13.5289 2.23807 12.536 2 11.3846 2C10.2332 2 9.24036 2.23807 8.57222 2.57585ZM5.76923 4.66781C5.71807 4.66705 5.66678 4.66666 5.61538 4.66666C4.21776 4.66666 2.90294 4.95093 1.90064 5.45765C0.955052 5.93569 0 6.77864 0 8V10.3333V12.6667H2V12.3633C2.04168 12.3859 2.08378 12.408 2.12623 12.4295C3.04499 12.8939 4.27932 13.1667 5.61538 13.1667C6.95145 13.1667 8.18578 12.8939 9.10454 12.4295C9.14699 12.408 9.18909 12.3859 9.23077 12.3633V12.6667C9.23077 12.734 9.15263 13.0577 8.42778 13.4241C7.75964 13.7619 6.76676 14 5.61538 14C4.46401 14 3.47113 13.7619 2.80299 13.4241C2.07814 13.0577 2 12.734 2 12.6667H0C0 13.888 0.955052 14.731 1.90064 15.209C2.90294 15.7157 4.21776 16 5.61538 16C7.01301 16 8.32783 15.7157 9.33013 15.209C10.2757 14.731 11.2308 13.888 11.2308 12.6667V11.3322C11.2819 11.3329 11.3332 11.3333 11.3846 11.3333C12.7822 11.3333 14.0971 11.0491 15.0994 10.5424C16.0449 10.0643 17 9.22135 17 8L17 5.66667L17 3.33333C17 2.11198 16.0449 1.26903 15.0994 0.790982C14.0971 0.284264 12.7822 0 11.3846 0C9.98698 0 8.67217 0.284264 7.66987 0.790982C6.72428 1.26903 5.76923 2.11198 5.76923 3.33333V4.66781ZM11.3846 6.66667C12.7365 6.66667 14.0109 6.4007 15 5.9247V6.50315C14.8477 6.62806 14.657 6.75188 14.4226 6.87036C13.6709 7.25038 12.5976 7.5 11.3846 7.5C11.3142 7.5 11.2442 7.49916 11.1746 7.49749C11.1033 7.18523 10.9677 6.9026 10.7891 6.64931C10.9854 6.66082 11.1842 6.66667 11.3846 6.66667ZM14.8738 7.7628C14.9162 7.74134 14.9583 7.71928 15 7.69664V8C15 8.06731 14.9219 8.39103 14.197 8.75748C13.5289 9.09526 12.536 9.33333 11.3846 9.33333C11.3331 9.33333 11.2818 9.33286 11.2308 9.33191V8.49879C11.2819 8.4996 11.3332 8.5 11.3846 8.5C12.7207 8.5 13.955 8.22728 14.8738 7.7628ZM2.80299 7.24252C2.07814 7.60897 2 7.93269 2 8C2 8.06731 2.07814 8.39102 2.80299 8.75748C3.47113 9.09526 4.46401 9.33333 5.61538 9.33333C6.76676 9.33333 7.75964 9.09526 8.42778 8.75748C9.15263 8.39102 9.23077 8.06731 9.23077 8C9.23077 7.93269 9.15263 7.60897 8.42778 7.24252C7.75964 6.90473 6.76676 6.66666 5.61538 6.66666C4.46401 6.66666 3.47113 6.90473 2.80299 7.24252ZM5.61538 11.3333C6.96729 11.3333 8.24172 11.0674 9.23077 10.5914V11.1698C9.07852 11.2947 8.88773 11.4185 8.65337 11.537C7.90169 11.917 6.82833 12.1667 5.61538 12.1667C4.40244 12.1667 3.32908 11.917 2.5774 11.537C2.34304 11.4185 2.15225 11.2947 2 11.1698V10.5914C2.98905 11.0674 4.26348 11.3333 5.61538 11.3333Z" fill="#9E9E9E"/>
</svg>
