<svg width="15" height="15" viewBox="0 0 15 15" fill="none" xmlns="http://www.w3.org/2000/svg">
<path fill-rule="evenodd" clip-rule="evenodd" d="M5.88154 4.12278C6.28217 3.06004 6.05976 1.82078 5.21162 0.972634C3.50874 -0.730246 1.73115 0.320779 1.73115 0.320779L3.67182 2.26121L3.50776 3.51145L2.25752 3.67552L0.325876 1.74387C0.325876 1.74387 -0.733939 3.51243 0.968942 5.21531C1.81709 6.06345 3.05634 6.28587 4.11909 5.88523L12.277 14.0429C12.7636 14.5298 13.5527 14.5298 14.0393 14.0429C14.5258 13.5564 14.5258 12.7673 14.0393 12.2807L5.88154 4.12278ZM12.5483 4.82932L11.6191 4.63596L9.65547 6.59959L8.24116 5.18552L10.1916 3.23509L9.97407 2.25511L13.4064 0.539041L14.2646 1.39695L12.5483 4.82932ZM5.65547 8.59983L4.24116 7.18552L0.477976 10.9487L0.335642 12.9084L1.81977 14.3926H3.65986L7.63691 10.6179L6.25996 9.16721L2.86176 12.3926H2.64839L2.39668 12.1411L2.41889 11.8364L5.65547 8.59983Z" fill="#9E9E9E"/>
</svg>
